<?xml version="1.0" encoding="UTF-8"?><svg xmlns="http://www.w3.org/2000/svg" xmlns:xlink="http://www.w3.org/1999/xlink" height="471.3" preserveAspectRatio="xMidYMid meet" version="1.0" viewBox="14.0 12.2 484.2 471.3" width="484.2" zoomAndPan="magnify"><g data-name="Layer 1 copy"><g id="change1_1"><path d="M409.76,477.58H20c0-130.34,105.66-236,236-236s236,105.66,236,236H439.76" fill="#9494ed"/></g><g id="change2_1"><path d="M204.5,247.22c4,7.67,3.88,12.83,2.44,16.43-2.76,6.89-10.09,7-16.9,19a47.81,47.81,0,0,0-6.34,23.24c0,11.92,5,13.51,3.53,21.83-2.15,11.91-14.24,18.81-18.31,21.13-4.87,2.78-16.71,9.53-25.36,4.93-7.78-4.14-4.52-13-14.08-21.83-1-1-11.3-10.21-21.13-7.75-9.34,2.35-8.78,12.9-20.42,24.65-2,2-17.42,17.59-32.39,14.79a20.79,20.79,0,0,1-5.28-1.77A236.34,236.34,0,0,1,204.5,247.22Z" fill="#6dd19d"/></g><g id="change3_1"><path d="M86,350.18a20.79,20.79,0,0,1-5.28-1.77,236.13,236.13,0,0,1,95.42-92.94A236.21,236.21,0,0,0,50.26,361.88a20.79,20.79,0,0,0,5.28,1.77c13,2.44,26.43-9.07,31-13.4Z" fill="#579e77"/></g><g id="change3_2"><path d="M174.06,340.32c-7.78-4.14-4.52-13-14.08-21.83-1-1-11.3-10.21-21.13-7.75-7.35,1.85-8.58,8.78-14.43,17.37a38.84,38.84,0,0,1,5.06,3.85c9.56,8.84,6.3,17.69,14.08,21.83,8.65,4.6,20.49-2.15,25.36-4.93a52.36,52.36,0,0,0,10-7.08A13.46,13.46,0,0,1,174.06,340.32Z" fill="#579e77"/></g><g id="change2_2"><path d="M456.73,353.42c-16.1-.45-23.9,3.9-28,8.82-5.44,6.6-4.38,14.5-9.85,16.2-7.53,2.34-19.81-9.4-26.06-21.83-7.66-15.24-3.92-26.87-10.56-29.58-4.86-2-7.9,3.81-21.13,7-6.72,1.64-17.32,4.23-23.94-.7-7.6-5.66-1.64-15-8.46-25.35-9.64-14.67-31.22-10.61-33.09-19.72-1.38-6.7,10-10.51,16.19-22.54a36.63,36.63,0,0,0,3.93-16.53A236.35,236.35,0,0,1,456.73,353.42Z" fill="#6dd19d"/></g><g id="change3_3"><path d="M301.11,293.27a22.62,22.62,0,0,0-5.53-5.81,4.81,4.81,0,0,0,.1.84c.53,2.59,2.66,4.12,5.64,5.31C301.25,293.5,301.19,293.38,301.11,293.27Z" fill="#579e77"/></g><g id="change3_4"><path d="M354.64,312.28c-4.86-2-7.9,3.81-21.13,7l-1,.25c.52,5.56.13,10.36,4.75,13.8,6.62,4.93,17.22,2.34,23.94.7l.83-.21C358.57,322.65,360.06,314.49,354.64,312.28Z" fill="#579e77"/></g><g id="change3_5"><path d="M397.61,288.77A236.41,236.41,0,0,0,353,262.41c5.59,3.48,11.27,7.33,17,11.61a236.71,236.71,0,0,1,59.12,64.65c-16.1-.45-23.9,3.9-28,8.82-3.69,4.48-4.39,9.54-6.17,12.88,6.62,10.91,17.22,20.18,24,18.07,5.47-1.7,4.41-9.6,9.85-16.2,4.06-4.92,11.86-9.27,28-8.82A236.85,236.85,0,0,0,397.61,288.77Z" fill="#579e77"/></g><g id="change2_3"><path d="M368.61,477.58C360,456.85,349.23,448,340,443.93c-12.91-5.71-21.07-1.26-33.1-9.86-17.7-12.64-11.58-30.52-26.76-39.43-13.77-8.09-35.76-3.34-48.59,7.74-18.09,15.63-15,41.34-24.65,42.26-8.78.84-12.33-20.45-26.05-21.83-8-.81-10.08,6-26.76,15.49-20.63,11.69-30,8.37-33.1,16.2-1.92,4.79.34,9.1,8.19,23.08Z" fill="#6dd19d"/></g><g id="change3_6"><path d="M221.12,461c9.63-.92,6.56-26.63,24.65-42.26,11.93-10.3,31.77-15.12,45.57-9.25-2.2-5.81-4.82-11.1-11.16-14.82-13.77-8.09-35.76-3.34-48.59,7.74-18.09,15.63-15,41.34-24.65,42.26a5.26,5.26,0,0,1-2.06-.22C211.31,451.09,214.91,461.57,221.12,461Z" fill="#579e77"/></g><g id="change3_7"><path d="M321.12,450.4c12,8.6,20.19,4.15,33.1,9.86a41.74,41.74,0,0,1,8.15,4.8c-7.24-12-15.26-18-22.33-21.13-12.06-5.33-20-1.8-30.77-8.32A34.39,34.39,0,0,0,321.12,450.4Z" fill="#579e77"/></g><g id="change3_8"><path d="M135.21,470.83c3.14-7.83,12.47-4.51,33.1-16.2,16.68-9.46,18.79-16.3,26.76-15.49a13.54,13.54,0,0,1,5.12,1.6c-5-6-9.6-16.95-19.3-17.93-8-.81-10.08,6-26.76,15.49-20.63,11.69-30,8.37-33.1,16.2-1.92,4.79.34,9.1,8.19,23.08h6A9.4,9.4,0,0,1,135.21,470.83Z" fill="#579e77"/></g><g id="change4_1"><path d="M255.72,148.71a18.13,18.13,0,1,1,0-36.26h9a20,20,0,0,1,8.51-16.12A70.67,70.67,0,1,0,268,148.71Z" fill="#efef37"/></g><g id="change5_1"><path d="M339.34,148.72H255.72a18.14,18.14,0,0,1,0-36.27h9a20.08,20.08,0,0,1,39.37-5.33,39.2,39.2,0,1,1,78.09,5.33h3.68a18.14,18.14,0,0,1,0,36.27H369.34" fill="#efefef"/></g><g id="change6_1"><path d="M385.91,112.45h-3.68a39.22,39.22,0,0,0-50-42.47,39,39,0,0,1,12.6,34h3.69a18.13,18.13,0,0,1,0,36.26H240.38a18.08,18.08,0,0,0,15.34,8.52H385.91a18.14,18.14,0,0,0,0-36.27Z" fill="#ccc"/></g></g><g data-name="Layer 1" fill="#808080" id="change7_1"><path d="M427.12,306.46A242,242,0,0,0,14,477.58a6,6,0,0,0,6,6H409.76a6,6,0,0,0,0-12H372.54C365,455.1,354.91,444,342.47,438.45c-6.4-2.83-11.76-3.48-16.49-4.06-5.57-.67-10-1.21-15.55-5.2-7.54-5.38-9.87-11.88-12.35-18.76-2.61-7.27-5.58-15.51-14.86-21-17.08-10-41.66-3.62-55.55,8.37-11.12,9.61-15.09,22.29-18,31.56-1,3.23-2.36,7.53-3.44,9-1.24-1-3.27-3.95-4.67-6-4.18-6.15-9.91-14.57-20.08-15.6-7-.7-11.32,2.67-16.26,6.59a101.47,101.47,0,0,1-14.07,9.65,93,93,0,0,1-20.95,8.74c-6.45,1.95-12,3.63-14.76,10.45-2.34,5.84-.88,10.77,3.61,19.31H52.9c-.19-3-.29-6-.27-8.92a6,6,0,0,0-6-6.05h0a6,6,0,0,0-6,5.95c0,3,.07,6,.25,9H26.08A228.58,228.58,0,0,1,53.14,369.26c.43.11.86.21,1.3.29a26.46,26.46,0,0,0,4.83.44c14.49,0,27.6-11.53,32.92-16.9a65.56,65.56,0,0,0,11.21-15.64c2.83-5.1,3.95-6.8,6.41-7.42,5.43-1.36,12.58,3.56,15.6,6.34,3.71,3.43,4.89,6.78,6.14,10.32,1.45,4.12,3.26,9.24,9.19,12.4,11.58,6.16,25.8-2,31.15-5,4.6-2.62,18.59-10.6,21.25-25.28,1-5.8-.31-9.51-1.51-12.79a25.55,25.55,0,0,1-1.93-10.11,41.36,41.36,0,0,1,5.55-20.27,31.56,31.56,0,0,1,9.22-10.25c3-2.38,6.18-4.84,8-9.5,1.69-4.21,1.77-9,.25-14.2a230.22,230.22,0,0,1,96.66,2.18,28.94,28.94,0,0,1-2.88,9.14c-2.44,4.72-6,8.06-9,11-4.27,4.07-9.11,8.68-7.7,15.51,1.59,7.76,9.36,9.94,16.21,11.87s13.76,3.87,17.75,9.94c2.4,3.65,2.66,7.23,2.92,11,.36,5,.8,11.25,7,15.85,8.88,6.61,21.43,3.54,28.94,1.71a58.74,58.74,0,0,0,14.69-5.78c1-.51,2.11-1.12,2.77-1.38a32.33,32.33,0,0,1,1.35,6.08c.86,5.23,2,12.4,6.1,20.49,5.7,11.34,18,25.44,29.34,25.44a12.77,12.77,0,0,0,3.86-.58c5.91-1.83,7.72-6.93,9.18-11a22.31,22.31,0,0,1,3.52-7.09c3.51-4.25,10.19-6.49,19.85-6.65a228.53,228.53,0,0,1,24.54,57.22c-2.9,1.11-5.8,2.12-8.67,3a6,6,0,0,0,1.77,11.73,5.79,5.79,0,0,0,1.78-.27c2.65-.82,5.33-1.74,8-2.73a229.48,229.48,0,0,1,5.24,43.21H439.76a6,6,0,0,0,0,12H492a6,6,0,0,0,6-6A240.41,240.41,0,0,0,427.12,306.46ZM126.6,456.74c.5-1.26,1.5-1.74,7.09-3.43a103.65,103.65,0,0,0,23.4-9.79,112.83,112.83,0,0,0,15.6-10.68c4.51-3.58,5.58-4.26,7.6-4.06,4.61.47,8.05,5.52,11.37,10.41,3.88,5.7,8.29,12.16,15.85,11.43,8.37-.8,10.92-9,13.63-17.64,2.6-8.33,5.84-18.69,14.37-26.06,11.79-10.18,30.86-13.43,41.63-7.1,5.54,3.25,7.26,8,9.65,14.67,2.71,7.53,6.08,16.91,16.66,24.47,8.08,5.77,15,6.61,21.09,7.35,4.27.51,8.31,1,13.07,3.11,8.46,3.75,15.69,11.19,21.56,22.16H132.74C127.58,462.32,125.84,458.64,126.6,456.74Zm74.77-195.32c-.64,1.59-1.85,2.59-4.31,4.52a43.29,43.29,0,0,0-12.24,13.76,53.37,53.37,0,0,0-7.12,26.21,37.67,37.67,0,0,0,2.66,14.22c1,2.7,1.44,3.93,1,6.54-1.66,9.16-12,15.05-15.38,17-3.79,2.16-13.83,7.9-19.57,4.85-1.63-.87-2.15-1.94-3.51-5.8-1.45-4.09-3.42-9.69-9.32-15.15-2.25-2.07-14.13-12.29-26.66-9.15-7.72,1.94-10.9,7.68-14,13.23a54.83,54.83,0,0,1-9.24,13c-6.52,6.59-15.9,13.1-24,13.32A230.85,230.85,0,0,1,201,254.24C202,257.16,202.11,259.57,201.37,261.42Zm222.77,97a33.12,33.12,0,0,0-5.56,10.69,18.94,18.94,0,0,1-1.53,3.62c-2.85.68-12.8-6.83-18.83-18.82-3.24-6.45-4.21-12.33-5-17.05-1-6.25-2.09-12.7-8.68-15.39-5.14-2.09-9.27.1-12.92,2a46.8,46.8,0,0,1-11.9,4.73c-5.45,1.33-14.57,3.55-18.93.31-1.58-1.18-1.83-2.47-2.16-7.07-.31-4.43-.74-10.49-4.87-16.76-6.45-9.82-16.89-12.76-24.52-14.9-2.61-.74-6.47-1.82-7.6-2.74a29.81,29.81,0,0,1,4.12-4.4c3.4-3.23,8.05-7.67,11.42-14.17A40.48,40.48,0,0,0,321.08,257a230.91,230.91,0,0,1,124.79,90.95C436.15,349.19,428.87,352.69,424.14,358.43Z"/><path d="M174.14,364.59A168.81,168.81,0,0,0,158,381.66a73.45,73.45,0,0,1-4.91,5.5,6,6,0,0,0,8.37,8.6,81,81,0,0,0,5.75-6.4,155.23,155.23,0,0,1,15.13-16,6,6,0,1,0-8.17-8.79Z"/><path d="M68,407.14a19.88,19.88,0,0,0-10.73,3C50.8,414,46.48,420.7,44,430.54a6,6,0,0,0,4.37,7.27,6.14,6.14,0,0,0,1.46.18,6,6,0,0,0,5.82-4.55c1.67-6.7,4.14-10.85,7.78-13.06a7.92,7.92,0,0,1,4.5-1.24,17.85,17.85,0,0,1,1.94.11,6,6,0,0,0,1.17-11.95C69.93,407.19,68.91,407.14,68,407.14Z"/><path d="M225.91,327.18c-8.74,2.64-16.95,7.53-28.31,16.85a6,6,0,0,0,7.61,9.28c10-8.25,17-12.49,24.17-14.64a6,6,0,1,0-3.47-11.49Z"/><path d="M128.6,401.62a99.34,99.34,0,0,1-28,7.3,6,6,0,0,0,.61,12l.62,0a111.65,111.65,0,0,0,31.44-8.16,6,6,0,0,0-4.62-11.08Z"/><path d="M440.69,437a6,6,0,0,0-.67-12c-1.94.11-3.9.16-5.82.16a96.9,96.9,0,0,1-10.55-.56c-3.86-.42-8.13-1.12-12.69-2.08a6,6,0,0,0-2.47,11.75c5,1,9.55,1.79,13.86,2.26a108.19,108.19,0,0,0,11.85.63C436.34,437.18,438.52,437.12,440.69,437Z"/><path d="M312.68,364.53a6,6,0,1,0-9.54,7.28,112.91,112.91,0,0,1,7,10.58c3,4.93,6.08,10,10.9,15.17a6,6,0,0,0,8.75-8.22c-4-4.21-6.48-8.36-9.39-13.17A121.67,121.67,0,0,0,312.68,364.53Z"/><path d="M288.83,342.52c-10.07-7.26-19.59-12.15-29.1-14.95a6,6,0,0,0-3.39,11.51c8.19,2.41,16.52,6.72,25.47,13.18a6,6,0,1,0,7-9.74Z"/><path d="M353.2,405a6,6,0,1,0-4.84,11c8.71,3.83,18.28,6.75,29.89,10.17a5.92,5.92,0,0,0,1.7.24,6,6,0,0,0,1.69-11.75C370.45,411.38,361.25,408.58,353.2,405Z"/><path d="M205.41,35.1a6,6,0,0,0,6-6V18.54a6,6,0,1,0-12,0V29.1A6,6,0,0,0,205.41,35.1Z"/><path d="M199.41,202.88v10.56a6,6,0,0,0,12,0V202.88a6,6,0,0,0-12,0Z"/><path d="M108,122h10.56a6,6,0,0,0,0-12H108a6,6,0,0,0,0,12Z"/><path d="M266.84,60.55a5.93,5.93,0,0,0,4.24-1.76l7.47-7.47a6,6,0,1,0-8.48-8.48l-7.47,7.47a6,6,0,0,0,4.24,10.24Z"/><path d="M262.6,173.18a6,6,0,0,0,0,8.49l7.47,7.47a6,6,0,0,0,8.48-8.49l-7.47-7.47A6,6,0,0,0,262.6,173.18Z"/><path d="M139.73,173.18l-7.47,7.47a6,6,0,1,0,8.48,8.49l7.47-7.47a6,6,0,0,0-8.48-8.49Z"/><path d="M139.73,58.79a6,6,0,0,0,8.48,0,6,6,0,0,0,0-8.48l-7.47-7.47a6,6,0,1,0-8.48,8.48Z"/><path d="M205.41,192.65a76.45,76.45,0,0,0,66.14-37.94h67.79a6,6,0,0,0,0-12H255.72a12.13,12.13,0,1,1,0-24.26h9a6,6,0,0,0,6-5.92,13.83,13.83,0,0,1,.12-1.57c0-.13.05-.25.07-.38a11,11,0,0,1,.23-1.17c0-.14.07-.27.11-.41.1-.37.22-.74.35-1.11l.15-.37a11.3,11.3,0,0,1,.51-1.12l.14-.3a14.75,14.75,0,0,1,1.73-2.51c.12-.14.25-.28.38-.41s.44-.46.67-.68.31-.29.47-.43l.74-.59a14,14,0,0,1,8.42-2.84,14.16,14.16,0,0,1,13.53,10.16,6,6,0,0,0,11.76-1.61,33.2,33.2,0,1,1,66.13,4.53,6,6,0,0,0,6,6.73h3.68a12.13,12.13,0,0,1,0,24.26H369.34a6,6,0,0,0,0,12h16.57a24.13,24.13,0,0,0,2.62-48.12,45.19,45.19,0,0,0-87.67-14.42A25.82,25.82,0,0,0,276.74,88a76.66,76.66,0,1,0-71.33,104.69Zm0-141.32a65,65,0,0,1,60.94,43,25.85,25.85,0,0,0-4.39,5.92c-.08.14-.15.28-.22.42-.23.43-.44.86-.64,1.3l-.3.68c-.15.38-.3.76-.44,1.14s-.19.51-.28.76c-.15.47-.29,1-.42,1.43,0,.14-.09.28-.12.43h-3.82a24.13,24.13,0,1,0,0,48.26h1.47A64.66,64.66,0,1,1,205.41,51.33Z"/></g></svg>